<mxfile><diagram id="fCPqQqGuQ4MZGQmFTQRT" name="Page-1"><mxGraphModel dx="839" dy="772" grid="1" gridSize="10" guides="1" tooltips="1" connect="1" arrows="1" fold="1" page="1" pageScale="1" pageWidth="1600" pageHeight="900" math="0" shadow="0"><root><mxCell id="0"/><mxCell id="1" parent="0"/><mxCell id="35" value="&lt;b&gt;Hub for all orchestration events&lt;/b&gt;" style="rounded=1;whiteSpace=wrap;html=1;labelBackgroundColor=none;fontColor=#808080;fillColor=none;strokeColor=#66FFFF;" vertex="1" parent="1"><mxGeometry x="410" y="150" width="100" height="650" as="geometry"/></mxCell><mxCell id="2" value="AWS Account - Org admin" style="points=[[0,0],[0.25,0],[0.5,0],[0.75,0],[1,0],[1,0.25],[1,0.5],[1,0.75],[1,1],[0.75,1],[0.5,1],[0.25,1],[0,1],[0,0.75],[0,0.5],[0,0.25]];outlineConnect=0;gradientColor=none;html=1;whiteSpace=wrap;fontSize=12;fontStyle=0;container=1;pointerEvents=0;collapsible=0;recursiveResize=0;shape=mxgraph.aws4.group;grIcon=mxgraph.aws4.group_account;strokeColor=#CD2264;fillColor=none;verticalAlign=top;align=left;spacingLeft=30;fontColor=#CD2264;dashed=0;" vertex="1" parent="1"><mxGeometry x="170" y="150" width="180" height="210" as="geometry"/></mxCell><mxCell id="3" value="&lt;b&gt;&lt;font color=&quot;#808080&quot;&gt;Default Event bus&lt;/font&gt;&lt;/b&gt;" style="sketch=0;points=[[0,0,0],[0.25,0,0],[0.5,0,0],[0.75,0,0],[1,0,0],[0,1,0],[0.25,1,0],[0.5,1,0],[0.75,1,0],[1,1,0],[0,0.25,0],[0,0.5,0],[0,0.75,0],[1,0.25,0],[1,0.5,0],[1,0.75,0]];outlineConnect=0;fontColor=#232F3E;gradientColor=#FF4F8B;gradientDirection=north;fillColor=#BC1356;strokeColor=#ffffff;dashed=0;verticalLabelPosition=bottom;verticalAlign=top;align=center;html=1;fontSize=12;fontStyle=0;aspect=fixed;shape=mxgraph.aws4.resourceIcon;resIcon=mxgraph.aws4.eventbridge;" vertex="1" parent="2"><mxGeometry x="50" y="70" width="78" height="78" as="geometry"/></mxCell><mxCell id="4" value="&lt;b&gt;&lt;font color=&quot;#808080&quot;&gt;EventBridge&lt;br&gt;&lt;/font&gt;&lt;/b&gt;" style="sketch=0;points=[[0,0,0],[0.25,0,0],[0.5,0,0],[0.75,0,0],[1,0,0],[0,1,0],[0.25,1,0],[0.5,1,0],[0.75,1,0],[1,1,0],[0,0.25,0],[0,0.5,0],[0,0.75,0],[1,0.25,0],[1,0.5,0],[1,0.75,0]];outlineConnect=0;fontColor=#232F3E;gradientColor=#FF4F8B;gradientDirection=north;fillColor=#BC1356;strokeColor=#ffffff;dashed=0;verticalLabelPosition=bottom;verticalAlign=top;align=center;html=1;fontSize=12;fontStyle=0;aspect=fixed;shape=mxgraph.aws4.resourceIcon;resIcon=mxgraph.aws4.eventbridge;" vertex="1" parent="1"><mxGeometry x="421" y="220" width="78" height="78" as="geometry"/></mxCell><mxCell id="5" value="&lt;font color=&quot;#808080&quot;&gt;&lt;b&gt;Event Processing&lt;br&gt;&amp;nbsp;main workflow&lt;/b&gt;&lt;/font&gt;" style="sketch=0;points=[[0,0,0],[0.25,0,0],[0.5,0,0],[0.75,0,0],[1,0,0],[0,1,0],[0.25,1,0],[0.5,1,0],[0.75,1,0],[1,1,0],[0,0.25,0],[0,0.5,0],[0,0.75,0],[1,0.25,0],[1,0.5,0],[1,0.75,0]];outlineConnect=0;fontColor=#232F3E;gradientColor=#FF4F8B;gradientDirection=north;fillColor=#BC1356;strokeColor=#ffffff;dashed=0;verticalLabelPosition=bottom;verticalAlign=top;align=center;html=1;fontSize=12;fontStyle=0;aspect=fixed;shape=mxgraph.aws4.resourceIcon;resIcon=mxgraph.aws4.step_functions;" vertex="1" parent="1"><mxGeometry x="610" y="320" width="78" height="78" as="geometry"/></mxCell><mxCell id="6" value="&lt;font color=&quot;#808080&quot;&gt;&lt;b&gt;Streaming to event lake&lt;/b&gt;&lt;/font&gt;" style="sketch=0;points=[[0,0,0],[0.25,0,0],[0.5,0,0],[0.75,0,0],[1,0,0],[0,1,0],[0.25,1,0],[0.5,1,0],[0.75,1,0],[1,1,0],[0,0.25,0],[0,0.5,0],[0,0.75,0],[1,0.25,0],[1,0.5,0],[1,0.75,0]];outlineConnect=0;fontColor=#232F3E;gradientColor=#945DF2;gradientDirection=north;fillColor=#5A30B5;strokeColor=#ffffff;dashed=0;verticalLabelPosition=bottom;verticalAlign=top;align=center;html=1;fontSize=12;fontStyle=0;aspect=fixed;shape=mxgraph.aws4.resourceIcon;resIcon=mxgraph.aws4.kinesis_data_firehose;" vertex="1" parent="1"><mxGeometry x="610" y="180" width="78" height="78" as="geometry"/></mxCell><mxCell id="7" value="&lt;font color=&quot;#808080&quot;&gt;&lt;b&gt;Event Integration &lt;br&gt;workflow&lt;br&gt;&lt;/b&gt;&lt;/font&gt;" style="sketch=0;points=[[0,0,0],[0.25,0,0],[0.5,0,0],[0.75,0,0],[1,0,0],[0,1,0],[0.25,1,0],[0.5,1,0],[0.75,1,0],[1,1,0],[0,0.25,0],[0,0.5,0],[0,0.75,0],[1,0.25,0],[1,0.5,0],[1,0.75,0]];outlineConnect=0;fontColor=#232F3E;gradientColor=#FF4F8B;gradientDirection=north;fillColor=#BC1356;strokeColor=#ffffff;dashed=0;verticalLabelPosition=bottom;verticalAlign=top;align=center;html=1;fontSize=12;fontStyle=0;aspect=fixed;shape=mxgraph.aws4.resourceIcon;resIcon=mxgraph.aws4.step_functions;" vertex="1" parent="1"><mxGeometry x="780" y="460" width="78" height="78" as="geometry"/></mxCell><mxCell id="8" value="BI Dashboard" style="outlineConnect=0;dashed=0;verticalLabelPosition=bottom;verticalAlign=top;align=center;html=1;shape=mxgraph.aws3.quicksight;fillColor=#00B7F4;gradientColor=none;fontColor=#808080;fontStyle=1" vertex="1" parent="1"><mxGeometry x="1070" y="189" width="60" height="60" as="geometry"/></mxCell><mxCell id="9" value="&lt;font color=&quot;#808080&quot;&gt;&lt;b&gt;Health event lake&lt;/b&gt;&lt;/font&gt;" style="sketch=0;points=[[0,0,0],[0.25,0,0],[0.5,0,0],[0.75,0,0],[1,0,0],[0,1,0],[0.25,1,0],[0.5,1,0],[0.75,1,0],[1,1,0],[0,0.25,0],[0,0.5,0],[0,0.75,0],[1,0.25,0],[1,0.5,0],[1,0.75,0]];outlineConnect=0;fontColor=#232F3E;gradientColor=#60A337;gradientDirection=north;fillColor=#277116;strokeColor=#ffffff;dashed=0;verticalLabelPosition=bottom;verticalAlign=top;align=center;html=1;fontSize=12;fontStyle=0;aspect=fixed;shape=mxgraph.aws4.resourceIcon;resIcon=mxgraph.aws4.s3;" vertex="1" parent="1"><mxGeometry x="780" y="180" width="78" height="78" as="geometry"/></mxCell><mxCell id="12" value="&lt;b&gt;Slack Chats&lt;/b&gt;" style="html=1;verticalLabelPosition=bottom;align=center;labelBackgroundColor=#ffffff;verticalAlign=top;strokeWidth=2;strokeColor=#0080F0;shadow=0;dashed=0;shape=mxgraph.ios7.icons.messages;fontColor=#808080;" vertex="1" parent="1"><mxGeometry x="807" y="750" width="30" height="25.5" as="geometry"/></mxCell><mxCell id="13" value="&lt;font color=&quot;#808080&quot;&gt;&lt;b&gt;Notification topic&lt;br&gt;&amp;nbsp;to group 1&lt;/b&gt;&lt;/font&gt;" style="sketch=0;points=[[0,0,0],[0.25,0,0],[0.5,0,0],[0.75,0,0],[1,0,0],[0,1,0],[0.25,1,0],[0.5,1,0],[0.75,1,0],[1,1,0],[0,0.25,0],[0,0.5,0],[0,0.75,0],[1,0.25,0],[1,0.5,0],[1,0.75,0]];outlineConnect=0;fontColor=#232F3E;gradientColor=#FF4F8B;gradientDirection=north;fillColor=#BC1356;strokeColor=#ffffff;dashed=0;verticalLabelPosition=bottom;verticalAlign=top;align=center;html=1;fontSize=12;fontStyle=0;aspect=fixed;shape=mxgraph.aws4.resourceIcon;resIcon=mxgraph.aws4.sns;" vertex="1" parent="1"><mxGeometry x="950" y="600" width="78" height="78" as="geometry"/></mxCell><mxCell id="14" value="&lt;font color=&quot;#808080&quot;&gt;&lt;b&gt;Notification topic&lt;br&gt;&amp;nbsp;to group 2&lt;/b&gt;&lt;/font&gt;" style="sketch=0;points=[[0,0,0],[0.25,0,0],[0.5,0,0],[0.75,0,0],[1,0,0],[0,1,0],[0.25,1,0],[0.5,1,0],[0.75,1,0],[1,1,0],[0,0.25,0],[0,0.5,0],[0,0.75,0],[1,0.25,0],[1,0.5,0],[1,0.75,0]];outlineConnect=0;fontColor=#232F3E;gradientColor=#FF4F8B;gradientDirection=north;fillColor=#BC1356;strokeColor=#ffffff;dashed=0;verticalLabelPosition=bottom;verticalAlign=top;align=center;html=1;fontSize=12;fontStyle=0;aspect=fixed;shape=mxgraph.aws4.resourceIcon;resIcon=mxgraph.aws4.sns;" vertex="1" parent="1"><mxGeometry x="950" y="460" width="78" height="78" as="geometry"/></mxCell><mxCell id="15" value="&lt;b&gt;Ops ticket approver&lt;/b&gt;" style="outlineConnect=0;dashed=0;verticalLabelPosition=bottom;verticalAlign=top;align=center;html=1;shape=mxgraph.aws3.email;fillColor=#D9A741;gradientColor=none;fontColor=#808080;" vertex="1" parent="1"><mxGeometry x="1160" y="478.25" width="54.66" height="41.5" as="geometry"/></mxCell><mxCell id="16" value="&lt;b&gt;External API&lt;br&gt;&amp;nbsp;Destination&lt;/b&gt;" style="aspect=fixed;html=1;points=[];align=center;image;fontSize=12;image=img/lib/azure2/networking/Private_Endpoint.svg;fontColor=#808080;" vertex="1" parent="1"><mxGeometry x="786" y="606" width="72" height="66" as="geometry"/></mxCell><mxCell id="17" value="&lt;font color=&quot;#808080&quot;&gt;&lt;b&gt;Callback handler&lt;br&gt;for integrated services&lt;br&gt;&lt;/b&gt;&lt;/font&gt;" style="sketch=0;points=[[0,0,0],[0.25,0,0],[0.5,0,0],[0.75,0,0],[1,0,0],[0,1,0],[0.25,1,0],[0.5,1,0],[0.75,1,0],[1,1,0],[0,0.25,0],[0,0.5,0],[0,0.75,0],[1,0.25,0],[1,0.5,0],[1,0.75,0]];outlineConnect=0;fontColor=#232F3E;gradientColor=#F78E04;gradientDirection=north;fillColor=#D05C17;strokeColor=#ffffff;dashed=0;verticalLabelPosition=bottom;verticalAlign=top;align=center;html=1;fontSize=12;fontStyle=0;aspect=fixed;shape=mxgraph.aws4.resourceIcon;resIcon=mxgraph.aws4.lambda;" vertex="1" parent="1"><mxGeometry x="610" y="600" width="78" height="78" as="geometry"/></mxCell><mxCell id="18" value="Jira via plug-in" style="image;image=img/lib/atlassian/Jira_Logo.svg;fontColor=#808080;fontStyle=1" vertex="1" parent="1"><mxGeometry x="613" y="728" width="72" height="72" as="geometry"/></mxCell><mxCell id="19" value="&lt;span&gt;&lt;font color=&quot;#808080&quot;&gt;Glue table&lt;/font&gt;&lt;/span&gt;" style="sketch=0;points=[[0,0,0],[0.25,0,0],[0.5,0,0],[0.75,0,0],[1,0,0],[0,1,0],[0.25,1,0],[0.5,1,0],[0.75,1,0],[1,1,0],[0,0.25,0],[0,0.5,0],[0,0.75,0],[1,0.25,0],[1,0.5,0],[1,0.75,0]];outlineConnect=0;fontColor=#232F3E;gradientColor=#945DF2;gradientDirection=north;fillColor=#5A30B5;strokeColor=#ffffff;dashed=0;verticalLabelPosition=bottom;verticalAlign=top;align=center;html=1;fontSize=12;fontStyle=1;aspect=fixed;shape=mxgraph.aws4.resourceIcon;resIcon=mxgraph.aws4.glue;" vertex="1" parent="1"><mxGeometry x="950" y="180" width="78" height="78" as="geometry"/></mxCell><mxCell id="20" value="" style="edgeStyle=elbowEdgeStyle;elbow=horizontal;endArrow=classic;html=1;curved=0;rounded=0;endSize=8;startSize=8;fontColor=#808080;fillColor=#60a917;strokeColor=#2D7600;entryX=0;entryY=0.5;entryDx=0;entryDy=0;entryPerimeter=0;exitX=1;exitY=0.5;exitDx=0;exitDy=0;exitPerimeter=0;" edge="1" parent="1" source="3" target="4"><mxGeometry width="50" height="50" relative="1" as="geometry"><mxPoint x="340" y="570" as="sourcePoint"/><mxPoint x="390" y="520" as="targetPoint"/></mxGeometry></mxCell><mxCell id="21" value="" style="edgeStyle=elbowEdgeStyle;elbow=horizontal;endArrow=classic;html=1;curved=0;rounded=0;endSize=8;startSize=8;fontColor=#808080;fillColor=#60a917;strokeColor=#2D7600;entryX=0;entryY=0.5;entryDx=0;entryDy=0;entryPerimeter=0;" edge="1" parent="1" source="4" target="6"><mxGeometry width="50" height="50" relative="1" as="geometry"><mxPoint x="288" y="299" as="sourcePoint"/><mxPoint x="430" y="299" as="targetPoint"/></mxGeometry></mxCell><mxCell id="22" value="" style="edgeStyle=elbowEdgeStyle;elbow=horizontal;endArrow=classic;html=1;curved=0;rounded=0;endSize=8;startSize=8;fontColor=#808080;fillColor=#60a917;strokeColor=#2D7600;exitX=1;exitY=0.5;exitDx=0;exitDy=0;exitPerimeter=0;" edge="1" parent="1" source="4" target="5"><mxGeometry width="50" height="50" relative="1" as="geometry"><mxPoint x="508" y="299" as="sourcePoint"/><mxPoint x="620" y="229" as="targetPoint"/></mxGeometry></mxCell><mxCell id="23" value="" style="edgeStyle=elbowEdgeStyle;elbow=horizontal;endArrow=classic;html=1;curved=0;rounded=0;endSize=8;startSize=8;fontColor=#808080;fillColor=#60a917;strokeColor=#2D7600;exitX=1;exitY=0.5;exitDx=0;exitDy=0;exitPerimeter=0;entryX=0;entryY=0.5;entryDx=0;entryDy=0;entryPerimeter=0;" edge="1" parent="1" source="6" target="9"><mxGeometry width="50" height="50" relative="1" as="geometry"><mxPoint x="508" y="299" as="sourcePoint"/><mxPoint x="620" y="369" as="targetPoint"/></mxGeometry></mxCell><mxCell id="24" value="" style="edgeStyle=elbowEdgeStyle;elbow=horizontal;endArrow=classic;html=1;curved=0;rounded=0;endSize=8;startSize=8;fontColor=#808080;fillColor=#60a917;strokeColor=#2D7600;entryX=0;entryY=0.5;entryDx=0;entryDy=0;entryPerimeter=0;" edge="1" parent="1" target="19"><mxGeometry width="50" height="50" relative="1" as="geometry"><mxPoint x="860" y="219" as="sourcePoint"/><mxPoint x="790" y="229" as="targetPoint"/></mxGeometry></mxCell><mxCell id="25" value="" style="edgeStyle=elbowEdgeStyle;elbow=horizontal;endArrow=classic;html=1;curved=0;rounded=0;endSize=8;startSize=8;fontColor=#808080;fillColor=#60a917;strokeColor=#2D7600;entryX=0;entryY=0.5;entryDx=0;entryDy=0;entryPerimeter=0;exitX=1;exitY=0.5;exitDx=0;exitDy=0;exitPerimeter=0;" edge="1" parent="1" source="5" target="26"><mxGeometry width="50" height="50" relative="1" as="geometry"><mxPoint x="900" y="229" as="sourcePoint"/><mxPoint x="990" y="229" as="targetPoint"/></mxGeometry></mxCell><mxCell id="26" value="&lt;b&gt;&lt;font color=&quot;#808080&quot;&gt;Event task state table&lt;/font&gt;&lt;/b&gt;" style="sketch=0;points=[[0,0,0],[0.25,0,0],[0.5,0,0],[0.75,0,0],[1,0,0],[0,1,0],[0.25,1,0],[0.5,1,0],[0.75,1,0],[1,1,0],[0,0.25,0],[0,0.5,0],[0,0.75,0],[1,0.25,0],[1,0.5,0],[1,0.75,0]];outlineConnect=0;fontColor=#232F3E;gradientColor=#4D72F3;gradientDirection=north;fillColor=#3334B9;strokeColor=#ffffff;dashed=0;verticalLabelPosition=bottom;verticalAlign=top;align=center;html=1;fontSize=12;fontStyle=0;aspect=fixed;shape=mxgraph.aws4.resourceIcon;resIcon=mxgraph.aws4.dynamodb;" vertex="1" parent="1"><mxGeometry x="780" y="320" width="78" height="78" as="geometry"/></mxCell><mxCell id="27" value="" style="edgeStyle=elbowEdgeStyle;elbow=horizontal;endArrow=classic;html=1;curved=0;rounded=0;endSize=8;startSize=8;fontColor=#808080;fillColor=#60a917;strokeColor=#2D7600;exitX=1;exitY=0.5;exitDx=0;exitDy=0;exitPerimeter=0;" edge="1" parent="1" source="19" target="8"><mxGeometry width="50" height="50" relative="1" as="geometry"><mxPoint x="870" y="229" as="sourcePoint"/><mxPoint x="960" y="229" as="targetPoint"/></mxGeometry></mxCell><mxCell id="28" value="" style="edgeStyle=elbowEdgeStyle;elbow=horizontal;endArrow=classic;html=1;curved=0;rounded=0;endSize=8;startSize=8;fontColor=#808080;fillColor=#60a917;strokeColor=#2D7600;exitX=0;exitY=0.5;exitDx=0;exitDy=0;exitPerimeter=0;" edge="1" parent="1" source="7" target="17"><mxGeometry width="50" height="50" relative="1" as="geometry"><mxPoint x="890" y="300" as="sourcePoint"/><mxPoint x="960" y="229" as="targetPoint"/></mxGeometry></mxCell><mxCell id="30" value="" style="edgeStyle=elbowEdgeStyle;elbow=horizontal;endArrow=classic;html=1;curved=0;rounded=0;endSize=8;startSize=8;fontColor=#808080;fillColor=#60a917;strokeColor=#2D7600;exitX=1;exitY=0.5;exitDx=0;exitDy=0;exitPerimeter=0;entryX=0;entryY=0.5;entryDx=0;entryDy=0;entryPerimeter=0;" edge="1" parent="1" source="7" target="13"><mxGeometry width="50" height="50" relative="1" as="geometry"><mxPoint x="790" y="509" as="sourcePoint"/><mxPoint x="698" y="649" as="targetPoint"/></mxGeometry></mxCell><mxCell id="31" value="" style="edgeStyle=elbowEdgeStyle;elbow=horizontal;endArrow=classic;html=1;curved=0;rounded=0;endSize=8;startSize=8;fontColor=#808080;fillColor=#60a917;strokeColor=#2D7600;exitX=1;exitY=0.5;exitDx=0;exitDy=0;exitPerimeter=0;entryX=0;entryY=0.5;entryDx=0;entryDy=0;entryPerimeter=0;" edge="1" parent="1" source="7" target="14"><mxGeometry width="50" height="50" relative="1" as="geometry"><mxPoint x="868" y="509" as="sourcePoint"/><mxPoint x="960" y="377" as="targetPoint"/></mxGeometry></mxCell><mxCell id="33" value="&lt;b&gt;Lfecycle&lt;br&gt;tickets approver&lt;/b&gt;" style="outlineConnect=0;dashed=0;verticalLabelPosition=bottom;verticalAlign=top;align=center;html=1;shape=mxgraph.aws3.email;fillColor=#D9A741;gradientColor=none;fontColor=#808080;" vertex="1" parent="1"><mxGeometry x="1160" y="618.25" width="54.66" height="41.5" as="geometry"/></mxCell><mxCell id="36" value="AWS Account - Health event processing account" style="points=[[0,0],[0.25,0],[0.5,0],[0.75,0],[1,0],[1,0.25],[1,0.5],[1,0.75],[1,1],[0.75,1],[0.5,1],[0.25,1],[0,1],[0,0.75],[0,0.5],[0,0.25]];outlineConnect=0;gradientColor=none;html=1;whiteSpace=wrap;fontSize=12;fontStyle=0;container=1;pointerEvents=0;collapsible=0;recursiveResize=0;shape=mxgraph.aws4.group;grIcon=mxgraph.aws4.group_account;strokeColor=#CD2264;fillColor=none;verticalAlign=top;align=left;spacingLeft=30;fontColor=#CD2264;dashed=0;" vertex="1" parent="1"><mxGeometry x="570" y="150" width="570" height="570" as="geometry"/></mxCell><mxCell id="42" value="" style="shape=flexArrow;endArrow=classic;startArrow=classic;html=1;fontColor=#808080;strokeColor=#66FFFF;entryX=0;entryY=0.75;entryDx=0;entryDy=0;entryPerimeter=0;endSize=6;" edge="1" parent="1" target="5"><mxGeometry width="100" height="100" relative="1" as="geometry"><mxPoint x="510" y="380" as="sourcePoint"/><mxPoint x="1340" y="450" as="targetPoint"/></mxGeometry></mxCell><mxCell id="43" value="" style="shape=flexArrow;endArrow=classic;startArrow=classic;html=1;fontColor=#808080;strokeColor=#66FFFF;entryX=0;entryY=0.25;entryDx=0;entryDy=0;entryPerimeter=0;endSize=6;" edge="1" parent="1" target="7"><mxGeometry width="100" height="100" relative="1" as="geometry"><mxPoint x="520" y="480" as="sourcePoint"/><mxPoint x="620" y="388.5" as="targetPoint"/></mxGeometry></mxCell><mxCell id="44" value="" style="shape=flexArrow;endArrow=classic;startArrow=classic;html=1;fontColor=#808080;strokeColor=#66FFFF;entryX=0;entryY=0.5;entryDx=0;entryDy=0;entryPerimeter=0;endSize=6;" edge="1" parent="1" target="17"><mxGeometry width="100" height="100" relative="1" as="geometry"><mxPoint x="510" y="640" as="sourcePoint"/><mxPoint x="790" y="509" as="targetPoint"/></mxGeometry></mxCell><mxCell id="45" value="" style="shape=flexArrow;endArrow=classic;startArrow=classic;html=1;fontColor=#808080;strokeColor=#66FFFF;entryX=0;entryY=0.5;entryDx=0;entryDy=0;endSize=6;exitX=1;exitY=0.945;exitDx=0;exitDy=0;exitPerimeter=0;" edge="1" parent="1" source="35" target="18"><mxGeometry width="100" height="100" relative="1" as="geometry"><mxPoint x="520" y="647.5" as="sourcePoint"/><mxPoint x="620" y="649" as="targetPoint"/></mxGeometry></mxCell><mxCell id="47" value="" style="edgeStyle=elbowEdgeStyle;elbow=horizontal;endArrow=classic;html=1;curved=0;rounded=0;endSize=8;startSize=8;fontColor=#808080;fillColor=#60a917;strokeColor=#2D7600;entryX=0;entryY=0.5;entryDx=0;entryDy=0;entryPerimeter=0;" edge="1" parent="1"><mxGeometry width="50" height="50" relative="1" as="geometry"><mxPoint x="220" y="620" as="sourcePoint"/><mxPoint x="310" y="620" as="targetPoint"/></mxGeometry></mxCell><mxCell id="48" value="" style="shape=flexArrow;endArrow=classic;startArrow=classic;html=1;fontColor=#808080;strokeColor=#66FFFF;endSize=6;" edge="1" parent="1"><mxGeometry width="100" height="100" relative="1" as="geometry"><mxPoint x="210" y="680.5" as="sourcePoint"/><mxPoint x="310" y="680" as="targetPoint"/></mxGeometry></mxCell><mxCell id="50" value="Legend:" style="text;strokeColor=none;fillColor=none;html=1;fontSize=24;fontStyle=1;verticalAlign=middle;align=center;labelBackgroundColor=none;fontColor=#808080;" vertex="1" parent="1"><mxGeometry x="170" y="560" width="100" height="40" as="geometry"/></mxCell><mxCell id="51" value="&lt;p&gt;&lt;font style=&quot;font-size: 13px;&quot;&gt;Logic flow&lt;/font&gt;&lt;/p&gt;" style="text;strokeColor=none;fillColor=none;html=1;fontSize=24;fontStyle=1;verticalAlign=middle;align=center;labelBackgroundColor=none;fontColor=#808080;" vertex="1" parent="1"><mxGeometry x="210" y="609" width="100" height="40" as="geometry"/></mxCell><mxCell id="52" value="&lt;p&gt;&lt;font style=&quot;font-size: 13px;&quot;&gt;Control events flow&lt;/font&gt;&lt;/p&gt;" style="text;strokeColor=none;fillColor=none;html=1;fontSize=24;fontStyle=1;verticalAlign=middle;align=center;labelBackgroundColor=none;fontColor=#808080;" vertex="1" parent="1"><mxGeometry x="210" y="680" width="100" height="40" as="geometry"/></mxCell><mxCell id="53" value="" style="edgeStyle=elbowEdgeStyle;elbow=horizontal;endArrow=classic;html=1;curved=0;rounded=0;endSize=8;startSize=8;fontColor=#808080;fillColor=#60a917;strokeColor=#2D7600;exitX=1;exitY=0.5;exitDx=0;exitDy=0;exitPerimeter=0;" edge="1" parent="1" source="14" target="15"><mxGeometry width="50" height="50" relative="1" as="geometry"><mxPoint x="509" y="269" as="sourcePoint"/><mxPoint x="620" y="229" as="targetPoint"/></mxGeometry></mxCell><mxCell id="54" value="" style="edgeStyle=elbowEdgeStyle;elbow=horizontal;endArrow=classic;html=1;curved=0;rounded=0;endSize=8;startSize=8;fontColor=#808080;fillColor=#60a917;strokeColor=#2D7600;exitX=1;exitY=0.5;exitDx=0;exitDy=0;exitPerimeter=0;" edge="1" parent="1" source="13" target="33"><mxGeometry width="50" height="50" relative="1" as="geometry"><mxPoint x="519" y="279" as="sourcePoint"/><mxPoint x="630" y="239" as="targetPoint"/></mxGeometry></mxCell><mxCell id="55" value="" style="edgeStyle=elbowEdgeStyle;elbow=horizontal;endArrow=classic;html=1;curved=0;rounded=0;endSize=8;startSize=8;fontColor=#808080;fillColor=#60a917;strokeColor=#2D7600;exitX=0.5;exitY=1;exitDx=0;exitDy=0;exitPerimeter=0;" edge="1" parent="1" source="7" target="16"><mxGeometry width="50" height="50" relative="1" as="geometry"><mxPoint x="790" y="509" as="sourcePoint"/><mxPoint x="698" y="649" as="targetPoint"/></mxGeometry></mxCell><mxCell id="56" value="" style="edgeStyle=elbowEdgeStyle;elbow=horizontal;endArrow=classic;html=1;curved=0;rounded=0;endSize=8;startSize=8;fontColor=#808080;fillColor=#60a917;strokeColor=#2D7600;" edge="1" parent="1" source="16" target="12"><mxGeometry width="50" height="50" relative="1" as="geometry"><mxPoint x="800" y="519" as="sourcePoint"/><mxPoint x="708" y="659" as="targetPoint"/></mxGeometry></mxCell></root></mxGraphModel></diagram></mxfile>